<svg width="115" height="133" viewBox="0 0 115 133" fill="none" xmlns="http://www.w3.org/2000/svg">
<path d="M57.5 127.017L5 96.7062V36.0844L57.5 5.7735L110 36.0844V96.7062L57.5 127.017Z" stroke="#F4510E" stroke-opacity="0.8" stroke-width="10"/>
<path d="M25.108 87V44.8182H39.3608C42.67 44.8182 45.375 45.4155 47.4759 46.6101C49.5904 47.791 51.1558 49.3906 52.1719 51.4091C53.188 53.4276 53.696 55.6794 53.696 58.1648C53.696 60.6501 53.188 62.9089 52.1719 64.9411C51.1695 66.9732 49.6179 68.5935 47.517 69.8018C45.4162 70.9964 42.7249 71.5938 39.4432 71.5938H29.2273V67.0625H39.2784C41.544 67.0625 43.3634 66.6712 44.7365 65.8885C46.1096 65.1058 47.1051 64.0485 47.723 62.7166C48.3546 61.371 48.6705 59.8537 48.6705 58.1648C48.6705 56.4759 48.3546 54.9654 47.723 53.6335C47.1051 52.3016 46.1027 51.258 44.7159 50.5028C43.3291 49.7339 41.4891 49.3494 39.196 49.3494H30.2159V87H25.108ZM61.9244 87V44.8182H76.6715C79.61 44.8182 82.0335 45.3262 83.9421 46.3423C85.8507 47.3447 87.2719 48.6972 88.2056 50.3999C89.1393 52.0888 89.6062 53.9631 89.6062 56.0227C89.6062 57.8352 89.2835 59.3319 88.6381 60.5128C88.0065 61.6937 87.1689 62.6274 86.1254 63.3139C85.0955 64.0005 83.9764 64.5085 82.7681 64.8381V65.25C84.0588 65.3324 85.3564 65.7855 86.6609 66.6094C87.9653 67.4332 89.0569 68.6141 89.9357 70.152C90.8145 71.6899 91.2539 73.571 91.2539 75.7955C91.2539 77.91 90.7733 79.8118 89.8121 81.5007C88.851 83.1896 87.3337 84.5284 85.2603 85.517C83.1869 86.5057 80.4888 87 77.1658 87H61.9244ZM67.0323 82.4688H77.1658C80.5025 82.4688 82.8711 81.8234 84.2717 80.5327C85.686 79.2282 86.3931 77.6491 86.3931 75.7955C86.3931 74.3674 86.0292 73.0492 85.3015 71.8409C84.5737 70.6188 83.5371 69.6439 82.1914 68.9162C80.8458 68.1747 79.253 67.804 77.413 67.804H67.0323V82.4688ZM67.0323 63.3551H76.5067C78.0446 63.3551 79.4315 63.053 80.6673 62.4489C81.9168 61.8447 82.9054 60.9934 83.6332 59.8949C84.3746 58.7964 84.7454 57.5057 84.7454 56.0227C84.7454 54.169 84.1 52.5968 82.8093 51.3061C81.5186 50.0017 79.4727 49.3494 76.6715 49.3494H67.0323V63.3551Z" fill="black" fill-opacity="0.8"/>
</svg>
