<svg width="71" height="71" viewBox="0 0 71 71" fill="none" xmlns="http://www.w3.org/2000/svg">
<path d="M34.8914 46.9177C33.3005 46.9177 31.8836 46.6442 30.6407 46.0974C29.4049 45.5434 28.4284 44.7834 27.711 43.8175C27.0008 42.8445 26.6351 41.7224 26.6137 40.4511H31.2586C31.287 40.9837 31.461 41.4525 31.7807 41.8573C32.1074 42.255 32.5406 42.564 33.0804 42.7842C33.6201 43.0043 34.2274 43.1144 34.9021 43.1144C35.6052 43.1144 36.2267 42.9901 36.7664 42.7415C37.3062 42.493 37.7288 42.1485 38.0342 41.7082C38.3396 41.2678 38.4923 40.76 38.4923 40.1847C38.4923 39.6023 38.3289 39.0874 38.0022 38.64C37.6826 38.1854 37.221 37.8303 36.6173 37.5746C36.0207 37.319 35.3105 37.1911 34.4866 37.1911H32.4518V33.8033H34.4866C35.1826 33.8033 35.797 33.6826 36.3297 33.4411C36.8694 33.1996 37.2885 32.8658 37.5868 32.4397C37.8851 32.0065 38.0342 31.5022 38.0342 30.9269C38.0342 30.38 37.9028 29.9006 37.64 29.4887C37.3843 29.0697 37.0221 28.743 36.5534 28.5086C36.0917 28.2742 35.552 28.157 34.9341 28.157C34.3091 28.157 33.7373 28.2707 33.2189 28.4979C32.7004 28.7181 32.2849 29.0342 31.9724 29.4461C31.6599 29.858 31.493 30.341 31.4717 30.895H27.0505C27.0718 29.6378 27.4305 28.5299 28.1265 27.5711C28.8226 26.6123 29.7601 25.863 30.939 25.3232C32.1251 24.7763 33.4639 24.5029 34.9554 24.5029C36.461 24.5029 37.7785 24.7763 38.9078 25.3232C40.037 25.8701 40.9142 26.6087 41.5392 27.5391C42.1713 28.4624 42.4838 29.4994 42.4767 30.6499C42.4838 31.8715 42.1038 32.8907 41.3368 33.7075C40.5768 34.5242 39.586 35.0427 38.3645 35.2629V35.4333C39.9696 35.6393 41.1912 36.1968 42.0292 37.1059C42.8744 38.0079 43.2934 39.1371 43.2863 40.4937C43.2934 41.7366 42.9348 42.841 42.2103 43.8069C41.493 44.7728 40.5022 45.5327 39.238 46.0867C37.9738 46.6407 36.525 46.9177 34.8914 46.9177Z" fill="white"/>
<rect x="1.55835" y="2.11938" width="67" height="67" rx="33.5" stroke="white" stroke-width="3"/>
</svg>
