<svg width="70" height="70" viewBox="0 0 70 70" fill="none" xmlns="http://www.w3.org/2000/svg">
<path d="M34.9077 46.2983C33.267 46.2983 31.8075 46.032 30.5291 45.4993C29.2578 44.9595 28.2599 44.2244 27.5355 43.294C26.8111 42.3636 26.4489 41.3089 26.4489 40.13C26.4489 39.2209 26.6548 38.3864 27.0668 37.6264C27.4858 36.8594 28.054 36.2237 28.7713 35.7195C29.4886 35.2081 30.2912 34.8814 31.179 34.7393V34.5902C30.0142 34.3558 29.0696 33.7912 28.3452 32.8963C27.6207 31.9943 27.2585 30.9467 27.2585 29.7536C27.2585 28.6243 27.5888 27.6193 28.2493 26.7386C28.9098 25.8509 29.8153 25.1548 30.9659 24.6506C32.1236 24.1392 33.4375 23.8835 34.9077 23.8835C36.3778 23.8835 37.6882 24.1392 38.8388 24.6506C39.9964 25.1619 40.9055 25.8615 41.5661 26.7493C42.2266 27.63 42.5604 28.6314 42.5675 29.7536C42.5604 30.9538 42.1911 32.0014 41.4595 32.8963C40.728 33.7912 39.7905 34.3558 38.647 34.5902V34.7393C39.5206 34.8814 40.3125 35.2081 41.0227 35.7195C41.7401 36.2237 42.3082 36.8594 42.7273 37.6264C43.1534 38.3864 43.37 39.2209 43.3771 40.13C43.37 41.3089 43.0043 42.3636 42.2798 43.294C41.5554 44.2244 40.554 44.9595 39.2756 45.4993C38.0043 46.032 36.5483 46.2983 34.9077 46.2983ZM34.9077 42.9105C35.6392 42.9105 36.2784 42.7791 36.8253 42.5163C37.3722 42.2464 37.7983 41.8771 38.1037 41.4084C38.4162 40.9325 38.5724 40.3857 38.5724 39.7678C38.5724 39.1357 38.4126 38.5781 38.093 38.0952C37.7734 37.6051 37.3402 37.2216 36.7933 36.9446C36.2464 36.6605 35.6179 36.5185 34.9077 36.5185C34.2045 36.5185 33.576 36.6605 33.022 36.9446C32.468 37.2216 32.0313 37.6051 31.7116 38.0952C31.3991 38.5781 31.2429 39.1357 31.2429 39.7678C31.2429 40.3857 31.3956 40.9325 31.701 41.4084C32.0064 41.8771 32.4361 42.2464 32.9901 42.5163C33.544 42.7791 34.1832 42.9105 34.9077 42.9105ZM34.9077 33.1626C35.5185 33.1626 36.0618 33.0384 36.5376 32.7898C37.0135 32.5412 37.3864 32.1967 37.6562 31.7564C37.9261 31.3161 38.0611 30.8082 38.0611 30.233C38.0611 29.6648 37.9261 29.1676 37.6562 28.7415C37.3864 28.3082 37.017 27.9709 36.5483 27.7294C36.0795 27.4808 35.5327 27.3565 34.9077 27.3565C34.2898 27.3565 33.7429 27.4808 33.267 27.7294C32.7912 27.9709 32.4183 28.3082 32.1484 28.7415C31.8857 29.1676 31.7543 29.6648 31.7543 30.233C31.7543 30.8082 31.8892 31.3161 32.1591 31.7564C32.429 32.1967 32.8018 32.5412 33.2777 32.7898C33.7536 33.0384 34.2969 33.1626 34.9077 33.1626Z" fill="white"/>
<rect x="1.5" y="1.5" width="67" height="67" rx="33.5" stroke="white" stroke-width="3"/>
</svg>
