<svg width="70" height="70" viewBox="0 0 70 70" fill="none" xmlns="http://www.w3.org/2000/svg">
<path d="M27.2685 46V42.6761L35.0348 35.4851C35.6953 34.8459 36.2493 34.2706 36.6967 33.7592C37.1513 33.2479 37.4957 32.7472 37.7301 32.2571C37.9645 31.7599 38.0817 31.2237 38.0817 30.6484C38.0817 30.0092 37.9361 29.4588 37.6449 28.9972C37.3537 28.5284 36.956 28.1697 36.4517 27.9212C35.9474 27.6655 35.3757 27.5376 34.7365 27.5376C34.0689 27.5376 33.4865 27.6726 32.9893 27.9425C32.4922 28.2124 32.1087 28.5994 31.8388 29.1037C31.5689 29.608 31.4339 30.2081 31.4339 30.9041H27.0554C27.0554 29.4766 27.3786 28.2372 28.0249 27.1861C28.6712 26.1349 29.5767 25.3217 30.7415 24.7464C31.9063 24.1712 33.2486 23.8835 34.7685 23.8835C36.331 23.8835 37.6911 24.1605 38.8487 24.7145C40.0135 25.2614 40.919 26.0213 41.5653 26.9943C42.2116 27.9673 42.5348 29.0824 42.5348 30.3395C42.5348 31.1634 42.3714 31.9766 42.0447 32.7791C41.7251 33.5817 41.1534 34.473 40.3295 35.4531C39.5057 36.4261 38.3445 37.5945 36.8459 38.9581L33.6605 42.0795V42.2287H42.8224V46H27.2685Z" fill="white"/>
<rect x="1.5" y="1.5" width="67" height="67" rx="33.5" stroke="white" stroke-width="3"/>
</svg>
