<svg width="1920" height="518" viewBox="0 0 1920 518" fill="none" xmlns="http://www.w3.org/2000/svg">
<path fill-rule="evenodd" clip-rule="evenodd" d="M0 288L25 240C49 192 98 96 148 105C197 115 246 230 295 268C345 307 394 268 443 268C492 268 542 307 591 307C640 307 689 268 738 220C788 172 837 115 886 105C935 96 985 134 1034 144C1083 153 1132 134 1182 172C1231 211 1280 307 1329 307C1378 307 1428 211 1477 172C1526 134 1575 153 1625 153C1674 153 1723 134 1772 105C1822 76 1871 38 1895 19L1920 0V518H1895C1871 518 1822 518 1772 518C1723 518 1674 518 1625 518C1575 518 1526 518 1477 518C1428 518 1378 518 1329 518C1280 518 1231 518 1182 518C1132 518 1083 518 1034 518C985 518 935 518 886 518C837 518 788 518 738 518C689 518 640 518 591 518C542 518 492 518 443 518C394 518 345 518 295 518C246 518 197 518 148 518C98 518 49 518 25 518H0V288Z" fill="url(#paint0_linear_16_2)"/>
<defs>
<linearGradient id="paint0_linear_16_2" x1="960" y1="46" x2="960" y2="518" gradientUnits="userSpaceOnUse">
<stop stop-color="#DE0405"/>
<stop offset="0.572917" stop-color="#FB760D"/>
<stop offset="1" stop-color="#EB8D1F"/>
</linearGradient>
</defs>
</svg>
