<svg width="1920" height="540" viewBox="0 0 1920 540" fill="none" xmlns="http://www.w3.org/2000/svg">
<path fill-rule="evenodd" clip-rule="evenodd" d="M0 518L23 528C46 538 91 557 137 499C183 442 229 307 274 288C320 269 366 365 411 336C457 307 503 154 549 134C594 115 640 230 686 240C731 250 777 154 823 115C869 77 914 96 960 134C1006 173 1051 230 1097 288C1143 346 1189 403 1234 374C1280 346 1326 230 1371 163C1417 96 1463 77 1509 96C1554 115 1600 173 1646 221C1691 269 1663.5 285.5 1752.5 296.5C1879 312.135 1897 201 1920 221V0H1897C1874 0 1829 0 1783 0C1737 0 1691 0 1646 0C1600 0 1554 0 1509 0C1463 0 1417 0 1371 0C1326 0 1280 0 1234 0C1189 0 1143 0 1097 0C1051 0 1006 0 960 0C914 0 869 0 823 0C777 0 731 0 686 0C640 0 594 0 549 0C503 0 457 0 411 0C366 0 320 0 274 0C229 0 183 0 137 0C91 0 46 0 23 0H0L0 518Z" fill="url(#paint0_linear_16_5)"/>
<defs>
<linearGradient id="paint0_linear_16_5" x1="960" y1="491.265" x2="960" y2="1.09806e-05" gradientUnits="userSpaceOnUse">
<stop stop-color="#DE0405"/>
<stop offset="0.572917" stop-color="#FB760D"/>
<stop offset="1" stop-color="#EB8D1F"/>
</linearGradient>
</defs>
</svg>
