<svg width="273" height="198" viewBox="0 0 273 198" fill="none" xmlns="http://www.w3.org/2000/svg">
<path d="M170.726 7.5021H61.466H60.1949L58.9947 7.92093C40.549 14.3583 7.5 41.4631 7.5 98.6767C7.5 155.874 40.5234 183.378 58.9072 190.05L60.147 190.5H61.466H170.759C196.38 190.5 213.094 173.73 223.657 155.074C229.16 145.355 233.255 134.712 236.308 124.728L257.934 185.514L272.066 180.486L242.964 98.6865L272.06 17.5333L257.94 12.4709L238.814 65.8154C234.457 48.2196 226.56 35.2598 216.892 26.035C202.145 11.9645 184.107 7.3877 170.726 7.5021Z" stroke="white" stroke-width="15"/>
</svg>
