<svg width="70" height="70" viewBox="0 0 70 70" fill="none" xmlns="http://www.w3.org/2000/svg">
<path d="M34.7372 46.2983C33.2315 46.2983 31.8892 46.0213 30.7102 45.4673C29.5384 44.9134 28.608 44.1499 27.919 43.1768C27.2301 42.2038 26.8714 41.0888 26.843 39.8317H31.3175C31.3672 40.6768 31.7223 41.3622 32.3828 41.8878C33.0433 42.4134 33.8281 42.6761 34.7372 42.6761C35.4616 42.6761 36.1009 42.5163 36.6548 42.1967C37.2159 41.87 37.6527 41.419 37.9652 40.8438C38.2848 40.2614 38.4446 39.5937 38.4446 38.8409C38.4446 38.0739 38.2813 37.3991 37.9545 36.8168C37.6349 36.2344 37.1911 35.7798 36.6229 35.4531C36.0547 35.1264 35.4048 34.9595 34.6733 34.9524C34.0341 34.9524 33.4126 35.0838 32.8089 35.3466C32.2124 35.6094 31.7472 35.968 31.4134 36.4226L27.3118 35.6875L28.3452 24.1818H41.6832V27.9531H32.1484L31.5838 33.4183H31.7116C32.0952 32.8786 32.674 32.4311 33.4482 32.076C34.2223 31.7209 35.0888 31.5433 36.0476 31.5433C37.3615 31.5433 38.5334 31.8523 39.5632 32.4702C40.593 33.0881 41.4062 33.9368 42.0028 35.0163C42.5994 36.0888 42.8942 37.3246 42.8871 38.7237C42.8942 40.1939 42.5533 41.5007 41.8643 42.6442C41.1825 43.7805 40.2273 44.6754 38.9986 45.3288C37.777 45.9751 36.3565 46.2983 34.7372 46.2983Z" fill="white"/>
<rect x="1.5" y="1.5" width="67" height="67" rx="33.5" stroke="white" stroke-width="3"/>
</svg>
